<?xml version="1.0" encoding="UTF-8" standalone="no"?>
<svg
   xmlns:dc="http://purl.org/dc/elements/1.1/"
   xmlns:cc="http://creativecommons.org/ns#"
   xmlns:rdf="http://www.w3.org/1999/02/22-rdf-syntax-ns#"
   xmlns:svg="http://www.w3.org/2000/svg"
   xmlns="http://www.w3.org/2000/svg"
   xmlns:sodipodi="http://sodipodi.sourceforge.net/DTD/sodipodi-0.dtd"
   xmlns:inkscape="http://www.inkscape.org/namespaces/inkscape"
   width="6.9659863mm"
   height="10.430791mm"
   viewBox="0 0 6.9659863 10.430791"
   version="1.1"
   id="svg8"
   inkscape:version="1.0.1 (3bc2e813f5, 2020-09-07)"
   sodipodi:docname="photo-logo.svg"
   inkscape:export-filename="C:\Users\rnd\github\photo\.readme-files\photo-logo-72.png"
   inkscape:export-xdpi="175.32707"
   inkscape:export-ydpi="175.32707">
  <defs
     id="defs2" />
  <sodipodi:namedview
     id="base"
     pagecolor="#ffffff"
     bordercolor="#666666"
     borderopacity="1.0"
     inkscape:pageopacity="0.0"
     inkscape:pageshadow="2"
     inkscape:zoom="3.959798"
     inkscape:cx="-54.558638"
     inkscape:cy="13.471909"
     inkscape:document-units="mm"
     inkscape:current-layer="layer1"
     inkscape:document-rotation="0"
     showgrid="false"
     fit-margin-top="0"
     fit-margin-left="0"
     fit-margin-right="0"
     fit-margin-bottom="0"
     inkscape:window-width="1346"
     inkscape:window-height="1040"
     inkscape:window-x="52"
     inkscape:window-y="0"
     inkscape:window-maximized="0" />
  <metadata
     id="metadata5">
    <rdf:RDF>
      <cc:Work
         rdf:about="">
        <dc:format>image/svg+xml</dc:format>
        <dc:type
           rdf:resource="http://purl.org/dc/dcmitype/StillImage" />
        <dc:title></dc:title>
      </cc:Work>
    </rdf:RDF>
  </metadata>
  <g
     inkscape:label="Layer 1"
     inkscape:groupmode="layer"
     id="layer1"
     transform="translate(-44.510144,-49.00847)">
    <g
       id="g84"
       transform="matrix(0.29585371,0,0,0.29585371,42.66777,49.00847)">
      <path
         fill="#c1694f"
         d="M 25,22 H 24.747 C 24.907,21.202 25,20.367 25,19.5 25,14.253 21.866,10 18,10 c -3.866,0 -7,4.253 -7,9.5 0,0.867 0.093,1.702 0.253,2.5 H 11 C 9,25 9.498,30.056 11.122,31 18,35 14,29 18,29 c 4,0 0,6 6.878,2 C 26.502,30.056 27,25 25,22 Z"
         id="path10" />
      <path
         fill="#c1694f"
         d="M 23.667,20.458 C 23.49,18.914 23.984,16.896 23.922,15.208 22.535,16.292 19.947,17 18,17 c -1.947,0 -4.51,-0.708 -5.897,-1.792 -0.062,1.688 0.407,3.706 0.23,5.25 -0.458,4 2.353,7.184 5.667,7.184 3.314,0 6.125,-3.184 5.667,-7.184 z"
         id="path12" />
      <path
         fill="#c1694f"
         d="m 12.373,14 c 0,0 -5,1 -6,7 -1,6 3.419,6.581 5,5 2,-2 0,-4 0,-4 0,0 1,-5 1,-8 z m 11.254,0 c 0,0 5,1 6,7 1,6 -3.419,6.581 -5,5 -2,-2 0,-4 0,-4 0,0 -1,-5 -1,-8 z"
         id="path14" />
      <path
         fill="#a0041e"
         d="m 13,13 c -2,0 -1,1 -1,2 0,1 1,3 3,2 0,0 -1,2 -1,5 0,0 2,0 3,2 0,0 1,-7 1,-9 0,-2 -4,-2 -5,-2 z m 10,0 c 2,0 1,1 1,2 0,1 -1,3 -3,2 0,0 1,2 1,5 0,0 -2,0 -3,2 0,0 -1,-7 -1,-9 0,-2 4,-2 5,-2 z"
         id="path16" />
      <circle
         fill="#c1694f"
         cx="11"
         cy="4"
         r="4"
         id="circle18" />
      <circle
         fill="#662113"
         cx="11"
         cy="4"
         r="2"
         id="circle20" />
      <circle
         fill="#c1694f"
         cx="25"
         cy="4"
         r="4"
         id="circle22" />
      <circle
         fill="#662113"
         cx="25"
         cy="4"
         r="2"
         id="circle24" />
      <ellipse
         fill="#c1694f"
         cx="18"
         cy="8.5"
         rx="8"
         ry="7.5"
         id="ellipse26" />
      <circle
         fill="#292f33"
         cx="15"
         cy="8"
         r="1"
         id="circle28" />
      <circle
         fill="#292f33"
         cx="21"
         cy="8"
         r="1"
         id="circle30" />
      <path
         fill="#d99e82"
         d="m 18.058,9.563 c -6.808,0 -4.612,5.562 -0.147,5.562 4.464,0 6.955,-5.562 0.147,-5.562 z"
         id="path32" />
      <path
         fill="#292f33"
         d="m 16.737,11.065 0.526,0.911 c 0.328,0.567 1.147,0.567 1.474,0 l 0.526,-0.911 C 19.591,10.498 19.181,9.788 18.526,9.788 h -1.052 c -0.655,0 -1.064,0.709 -0.737,1.277 z"
         id="path34" />
      <path
         fill="#934035"
         d="m 11.265,27.002 c -0.166,0 -0.327,-0.082 -0.422,-0.231 -0.148,-0.233 -0.08,-0.542 0.153,-0.69 0.04,-0.025 1.027,-0.688 0.997,-2.022 -0.023,-0.991 -0.933,-1.641 -0.942,-1.646 -0.121,-0.085 -0.2,-0.221 -0.213,-0.368 -0.205,-2.36 0.65,-4.709 0.687,-4.809 0.096,-0.258 0.381,-0.391 0.642,-0.296 0.259,0.096 0.392,0.383 0.296,0.642 -0.008,0.021 -0.761,2.099 -0.644,4.165 0.375,0.322 1.146,1.124 1.174,2.289 0.044,1.91 -1.398,2.851 -1.459,2.89 -0.085,0.051 -0.178,0.076 -0.269,0.076 z m 13.471,0 c -0.092,0 -0.186,-0.025 -0.269,-0.078 -0.062,-0.039 -1.504,-0.979 -1.46,-2.89 0.027,-1.165 0.799,-1.967 1.174,-2.289 0.118,-2.072 -0.636,-4.143 -0.644,-4.164 -0.096,-0.259 0.036,-0.547 0.296,-0.643 0.257,-0.095 0.546,0.037 0.642,0.296 0.037,0.099 0.893,2.448 0.688,4.809 -0.013,0.149 -0.092,0.284 -0.215,0.369 -0.008,0.005 -0.918,0.654 -0.94,1.646 -0.031,1.353 0.986,2.016 0.997,2.022 0.232,0.148 0.302,0.457 0.153,0.69 -0.096,0.15 -0.257,0.232 -0.422,0.232 z M 24.665,22 h 0.01 z"
         id="path36" />
      <ellipse
         transform="rotate(-45.001,11.121,30.5)"
         fill="#c1694f"
         cx="11.122"
         cy="30.5"
         rx="4.5"
         ry="5"
         id="ellipse38" />
      <path
         fill="#d99e82"
         d="m 13.349,33.227 c -1.054,1.054 -2.906,0.912 -4.137,-0.318 -1.23,-1.23 -1.373,-3.082 -0.318,-4.137 1.054,-1.054 2.906,-0.912 4.137,0.318 1.23,1.231 1.372,3.083 0.318,4.137 z"
         id="path40" />
      <path
         fill="#d99e82"
         d="m 12.889,32.768 c -0.781,0.781 -2.206,0.623 -3.182,-0.354 -0.976,-0.976 -1.135,-2.401 -0.354,-3.182 0.781,-0.781 2.206,-0.623 3.182,0.354 0.976,0.977 1.135,2.401 0.354,3.182 z"
         id="path42" />
      <ellipse
         transform="rotate(-45.001,24.878,30.5)"
         fill="#c1694f"
         cx="24.878"
         cy="30.5"
         rx="5"
         ry="4.5"
         id="ellipse44" />
      <path
         fill="#d99e82"
         d="m 22.651,33.227 c 1.054,1.054 2.906,0.912 4.137,-0.318 1.23,-1.23 1.373,-3.082 0.318,-4.137 -1.054,-1.054 -2.906,-0.912 -4.137,0.318 -1.23,1.231 -1.372,3.083 -0.318,4.137 z"
         id="path46" />
      <ellipse
         transform="rotate(-45.001,24.878,31)"
         fill="#d99e82"
         cx="24.878"
         cy="31"
         rx="2.5"
         ry="2"
         id="ellipse48" />
      <path
         fill="#292f33"
         d="m 18.087,14.138 c -1.28,0 -2.249,-0.947 -2.264,-0.961 -0.098,-0.098 -0.098,-0.255 0,-0.353 0.098,-0.098 0.255,-0.098 0.353,-10e-4 0.075,0.074 1.849,1.797 3.647,0 0.098,-0.098 0.256,-0.098 0.354,0 0.098,0.098 0.098,0.256 0,0.354 -0.721,0.721 -1.445,0.961 -2.09,0.961 z"
         id="path50" />
      <path
         fill="#934035"
         d="m 15.95,29.727 c -0.185,0 -0.362,-0.103 -0.449,-0.28 C 13.227,24.812 8.706,26.297 8.515,26.361 8.253,26.452 7.97,26.312 7.88,26.05 7.79,25.789 7.928,25.506 8.189,25.415 c 0.055,-0.02 5.543,-1.845 8.21,3.592 0.122,0.247 0.02,0.547 -0.229,0.669 -0.071,0.034 -0.147,0.051 -0.22,0.051 z m 4.101,0 c -0.065,0 -0.132,-0.013 -0.195,-0.04 -0.255,-0.108 -0.373,-0.401 -0.265,-0.655 2.255,-5.301 8.141,-3.641 8.198,-3.623 0.265,0.077 0.416,0.354 0.339,0.619 -0.077,0.267 -0.362,0.414 -0.619,0.341 -0.207,-0.061 -5.096,-1.42 -6.998,3.054 -0.081,0.189 -0.266,0.304 -0.46,0.304 z"
         id="path52" />
    </g>
    <g
       id="Layer_1_1_"
       transform="matrix(0.00750542,0,0,0.00750542,44.353967,52.322594)">
	<g
   id="g106">
		<path
   d="m 744.8,338.3 h -81.3 v -41 c 0,-7.1 5.7,-12.8 12.8,-12.8 h 55.8 c 7.1,0 12.8,5.7 12.8,12.8 z"
   id="path88" />

		<path
   class="st0"
   d="M 761,675.5 H 199 c -14.1,0 -25.5,-11.4 -25.5,-25.5 V 338.8 c 0,-14.1 11.4,-25.5 25.5,-25.5 h 562 c 14.1,0 25.5,11.4 25.5,25.5 V 650 c 0.1,14.1 -11.4,25.5 -25.5,25.5 z"
   id="path90" />

		<path
   class="st1"
   d="M 761,632.9 H 199 c -14.1,0 -25.5,-11.4 -25.5,-25.5 V 650 c 0,14.1 11.4,25.5 25.5,25.5 h 562 c 14.1,0 25.5,-11.4 25.5,-25.5 v -42.6 c 0.1,14.1 -11.4,25.5 -25.5,25.5 z"
   id="path92" />

		<rect
   x="173.39999"
   y="398.70001"
   class="st2"
   width="613.09998"
   height="202.10001"
   id="rect94" />

		<circle
   class="st3"
   cx="480"
   cy="495.29999"
   r="110.2"
   id="circle96" />

		<circle
   class="st0"
   cx="480"
   cy="495.29999"
   r="63"
   id="circle98" />

		<circle
   class="st4"
   cx="440.60001"
   cy="455.89999"
   r="23.6"
   id="circle100" />

		<circle
   class="st5"
   cx="234.3"
   cy="356.5"
   r="18.4"
   id="circle102" />

		<rect
   x="675.5"
   y="342.79999"
   class="st2"
   width="69.400002"
   height="27.6"
   id="rect104" />

	</g>

</g>
  </g>
  <style
     type="text/css"
     id="style86">
	.st0{fill:#333333;}
	.st1{fill:#0F0F0F;}
	.st2{fill:#AAAAAA;}
	.st3{stroke:#FFFFFF;stroke-width:29.8029;stroke-miterlimit:10;}
	.st4{fill:#FFFFFF;}
	.st5{fill:#CC333F;}
</style>
</svg>
